<svg xmlns="http://www.w3.org/2000/svg" width="57" height="60" viewBox="0 0 57 60" fill="none">
    <rect x="15.1924" width="3.79811" height="9.52377" rx="1.89906" fill="#2653C7"/>
    <rect x="37.9809" width="3.79811" height="9.52377" rx="1.89906" fill="#2653C7"/>
    <path fill-rule="evenodd" clip-rule="evenodd" d="M32.6 31.6181C32.4016 33.1686 31.7604 34.579 30.8033 35.7156C29.7986 36.9159 28.4464 37.8122 26.9021 38.2516L26.8354 38.2707L26.6846 38.3105L26.6719 38.3136L14.7128 41.5293V38.7403C14.7128 38.6782 14.7127 38.6161 14.7191 38.554C14.7889 37.3872 15.5206 36.397 16.5427 35.9592C16.6586 35.9083 16.7776 35.8653 16.9014 35.8319L17.0141 35.8016L32.5984 31.6133V31.6181H32.6Z" fill="#2653C7"/>
    <path fill-rule="evenodd" clip-rule="evenodd" d="M42.261 21.3345C41.8546 24.5167 39.5739 27.1115 36.5631 27.968L36.4964 27.9871L36.3472 28.0269H36.3456L36.3329 28.0301L14.7128 33.8406V31.0515C14.7128 29.8035 15.4667 28.7321 16.5428 28.2705L16.9014 28.1431L17.0125 28.1129L42.2594 21.3281V21.3345H42.261Z" fill="#2653C7"/>
    <path fill-rule="evenodd" clip-rule="evenodd" d="M11.8691 6.66498H45.1026C49.56 6.66498 53.1735 10.2893 53.1735 14.7602V41.707H56.9716V14.7602C56.9716 8.18539 51.6577 2.85547 45.1026 2.85547H11.8691C5.31397 2.85547 0 8.18539 0 14.7602V48.0934C0 54.6681 5.31397 59.9981 11.8691 59.9981H38.5846V56.1886H11.8691C7.41161 56.1886 3.79811 52.5642 3.79811 48.0934V14.7602C3.79811 10.2893 7.41161 6.66498 11.8691 6.66498Z" fill="#2653C7"/>
    <path fill-rule="evenodd" clip-rule="evenodd" d="M39.2092 60.0019L57 42.1577V41.5312H38.5846V60.0019H39.2092Z" fill="#2653C7"/>
</svg>
