<svg xmlns="http://www.w3.org/2000/svg" width="32" height="32" viewBox="0 0 32 32" fill="none">
    <path d="M14.4823 20.2365C14.4823 15.1157 18.6538 10.9444 23.7744 10.9444C25.9401 10.9444 27.9245 11.6911 29.5034 12.9395C29.5674 12.5661 29.5888 12.182 29.5888 11.7979C29.5781 9.4722 28.6713 7.30647 27.0282 5.67412C23.8276 2.52677 18.7172 2.42001 15.3356 5.32213C13.7674 3.94598 11.7723 3.19922 9.67049 3.19922C7.36592 3.19922 5.21093 4.09527 3.57879 5.72762C0.228945 9.08814 0.228945 14.5612 3.57879 17.9321L13.586 27.9602C14.0554 28.4189 14.6636 28.6752 15.3251 28.6752C15.9863 28.6752 16.6053 28.4192 17.0639 27.9602L17.7361 27.2773C15.741 25.5813 14.4823 23.0528 14.4823 20.2361L14.4823 20.2365Z" fill="#FF6154"/>
    <path d="M23.7749 13.0781C19.8275 13.0781 16.6162 16.2894 16.6162 20.2368C16.6162 24.1842 19.8275 27.3955 23.7749 27.3955C27.7223 27.3955 30.9336 24.1842 30.9336 20.2368C30.9333 16.2891 27.7223 13.0781 23.7749 13.0781ZM25.7911 21.3033H23.7749C23.188 21.3033 22.7079 20.8232 22.7079 20.2364V18.1346C22.7079 17.537 23.188 17.0676 23.7749 17.0676C24.3617 17.0676 24.8419 17.537 24.8419 18.1346V19.1694H25.7914C26.3782 19.1694 26.8584 19.6495 26.8584 20.2364C26.8581 20.8232 26.378 21.3033 25.7911 21.3033Z" fill="#FF6154"/>
</svg>
