<svg xmlns="http://www.w3.org/2000/svg" width="32" height="32" viewBox="0 0 32 32" fill="none">
    <path d="M28.0001 14H27.0001V12C27.0001 9.08262 25.8412 6.28473 23.7783 4.22183C21.7154 2.15893 18.9175 1 16.0001 1C13.0827 1 10.2848 2.15893 8.22195 4.22183C6.15905 6.28473 5.00012 9.08262 5.00012 12V14H4.00012C3.20447 14 2.44141 14.3161 1.8788 14.8787C1.31619 15.4413 1.00012 16.2044 1.00012 17V21C1.00012 21.7956 1.31619 22.5587 1.8788 23.1213C2.44141 23.6839 3.20447 24 4.00012 24H5.00012C5.00012 24.7956 5.31619 25.5587 5.8788 26.1213C6.44141 26.6839 7.20447 27 8.00012 27C8.79577 27 9.55883 26.6839 10.1214 26.1213C10.6841 25.5587 11.0001 24.7956 11.0001 24V14C11.0004 13.5199 10.8854 13.0468 10.6649 12.6204C10.4444 12.1939 10.1247 11.8267 9.73281 11.5494C9.34091 11.2721 8.88818 11.0929 8.41267 11.0269C7.93715 10.9609 7.45274 11.01 7.00012 11.17C7.2111 8.93974 8.24625 6.86833 9.90324 5.3607C11.5602 3.85306 13.7199 3.01758 15.9601 3.01758C18.2003 3.01758 20.36 3.85306 22.017 5.3607C23.674 6.86833 24.7091 8.93974 24.9201 11.17C24.4721 11.0256 23.9965 10.9887 23.5316 11.0622C23.0667 11.1357 22.6256 11.3176 22.244 11.5931C21.8624 11.8686 21.551 12.23 21.3349 12.6481C21.1188 13.0662 21.0041 13.5294 21.0001 14V24C21.0015 24.4792 21.1176 24.9512 21.3388 25.3763C21.56 25.8014 21.8798 26.1674 22.2715 26.4435C22.6632 26.7196 23.1153 26.8979 23.59 26.9634C24.0648 27.0289 24.5483 26.9797 25.0001 26.82V29H21.9001C21.7571 29.7267 21.4492 30.411 21.0001 31H26.0001C26.2653 31 26.5197 30.8946 26.7072 30.7071C26.8948 30.5196 27.0001 30.2652 27.0001 30V24H28.0001C28.7958 24 29.5588 23.6839 30.1214 23.1213C30.6841 22.5587 31.0001 21.7956 31.0001 21V17C31.0001 16.2044 30.6841 15.4413 30.1214 14.8787C29.5588 14.3161 28.7958 14 28.0001 14Z" fill="#1FC16B"/>
    <path d="M17.0001 25H15.0001C14.2045 25 13.4414 25.3161 12.8788 25.8787C12.3162 26.4413 12.0001 27.2044 12.0001 28C12.0001 28.7957 12.3162 29.5587 12.8788 30.1213C13.4414 30.6839 14.2045 31 15.0001 31H17.0001C17.7958 31 18.5588 30.6839 19.1214 30.1213C19.6841 29.5587 20.0001 28.7957 20.0001 28C20.0001 27.2044 19.6841 26.4413 19.1214 25.8787C18.5588 25.3161 17.7958 25 17.0001 25Z" fill="#1FC16B"/>
</svg>
